<?xml version="1.0" encoding="utf-8"?>
<!-- Generator: Adobe Illustrator 19.1.0, SVG Export Plug-In . SVG Version: 6.00 Build 0)  -->
<svg version="1.1" id="Layer_1" xmlns="http://www.w3.org/2000/svg" xmlns:xlink="http://www.w3.org/1999/xlink" x="0px" y="0px"
	 viewBox="0 0 27.1 35.3" style="enable-background:new 0 0 27.1 35.3;" xml:space="preserve">
<style type="text/css">
	.st0{fill:#FFFFFF;}
</style>
<path class="st0" d="M25.3,0c-1,0-1.8,0.8-1.8,1.8v14c0,0.5-0.4,0.9-0.9,0.9c-0.5,0-0.9-0.4-0.9-0.9v-5.2c0-1-0.8-1.8-1.8-1.8
	c-1,0-1.8,0.8-1.8,1.8v5.2c0,0.5-0.4,0.9-0.9,0.9c-0.5,0-0.9-0.4-0.9-0.9v-5.1c0-1-0.8-1.8-1.8-1.8c-1,0-1.8,0.8-1.8,1.8v5.1
	c0,0.5-0.4,0.9-0.9,0.9c-0.5,0-0.9-0.4-0.9-0.9v-14c0-1-0.8-1.8-1.8-1.8S7.4,0.8,7.4,1.8v18.6c0,1.1-0.9,1.9-1.9,1.9
	c-1.1,0-1.9-0.9-1.9-1.9v-3.6c0-1-0.8-1.8-1.8-1.8S0,15.8,0,16.8v4.4l0,1.1c0.4,7.2,6.3,12.9,13.6,12.9c6.8,0,12.4-5,13.4-11.5v-22
	C27.1,0.8,26.3,0,25.3,0z"/>
</svg>
