<?xml version="1.0" encoding="utf-8"?>
<!-- Generator: Adobe Illustrator 19.1.0, SVG Export Plug-In . SVG Version: 6.00 Build 0)  -->
<svg version="1.1" id="Layer_1" xmlns="http://www.w3.org/2000/svg" xmlns:xlink="http://www.w3.org/1999/xlink" x="0px" y="0px"
	 viewBox="0 0 244.7 94.7" style="enable-background:new 0 0 244.7 94.7;" xml:space="preserve">
<style type="text/css">
	.st0{fill:#FFFFFF;}
</style>
<g>
	<path class="st0" d="M6.8,58.3l0,20.2l-6.7,0L0,33.6l6.7,0l0,18.4l7.5,0l0-18.4l6.7,0L21,78.5l-6.7,0l0-20.2L6.8,58.3z"/>
</g>
<g>
	<path class="st0" d="M49.1,47.5c0,6.7-0.5,9.1-2.7,11.7c-1.8,2.2-4.7,3.6-7.8,3.6c-3.2,0-6.1-1.3-7.9-3.6
		c-2.2-2.6-2.7-5.1-2.7-11.7l0-15.7c0-6.6,0.5-9.1,2.7-11.7c1.8-2.2,4.7-3.6,7.9-3.6c3.1,0,6.1,1.3,7.8,3.6c2.2,2.6,2.7,5,2.7,11.7
		L49.1,47.5z M34.8,46.8c0,4.2,0.1,6.3,0.5,7.2c0.5,1.6,1.8,2.6,3.4,2.6c1.7,0,3-1.1,3.4-3c0.2-0.9,0.3-3,0.3-6.8l0-14.2
		c0-4.4-0.1-6.3-0.5-7.2c-0.5-1.6-1.8-2.6-3.3-2.6c-1.7,0-3,1.1-3.5,3c-0.2,0.9-0.3,3.2-0.3,6.8L34.8,46.8z"/>
</g>
<g>
	<path class="st0" d="M72.4,78.4l-9.8-27.7l0,27.7l-6.3,0l-0.1-44.9l6.8,0l9.3,26.6l0-26.6l6.3,0l0.1,44.9L72.4,78.4z"/>
</g>
<g>
	<path class="st0" d="M104.2,56.1l-11.6,0l0,12.2l8.3,0l0,6.3l-8.3,0l0,13.9l11.6,0l0,6.3l-18.3,0l-0.1-44.9l18.3,0L104.2,56.1z"/>
</g>
<g>
	<path class="st0" d="M119.7,78.3l-6.7,0l0-18.2l-8.5-26.7l7,0l4.8,17.6l4.6-17.6l6.8,0l-8,26.7L119.7,78.3z"/>
</g>
<g>
	<path class="st0" d="M147.1,31.9c0-2.6-0.1-4.6-0.1-5.7c-0.3-2.2-1.7-3.6-3.6-3.6c-1.7,0-3,1.1-3.4,3c-0.2,0.9-0.3,3-0.3,6.8
		l0,14.3c0,4.3,0.1,6.2,0.5,7.1c0.5,1.6,1.8,2.6,3.3,2.6c2,0,3.4-1.5,3.6-3.8c0.1-1.2,0.2-4.5,0.2-6.5l6.8,0l0,2.6
		c0,4.6-0.3,6.4-1.5,8.7c-1.7,3.3-5,5.3-8.9,5.3c-3.2,0-6.1-1.3-7.9-3.6c-2.2-2.7-2.7-4.9-2.7-11.9l0-15.2c0-7.1,0.5-9.3,2.7-12
		c1.8-2.3,4.7-3.6,7.9-3.6c3.9,0,7.3,1.8,9,4.9c1.2,2.2,1.6,3.8,1.6,8.2l0,2.4L147.1,31.9z"/>
</g>
<g>
	<path class="st0" d="M181.3,30.9c0,6.7-0.5,9.1-2.7,11.7c-1.8,2.2-4.7,3.6-7.8,3.6c-3.2,0-6.1-1.3-7.9-3.6
		c-2.2-2.6-2.7-5.1-2.7-11.7l0-15.7c0-6.6,0.5-9.1,2.7-11.7c1.8-2.2,4.7-3.6,7.9-3.6c3.1,0,6.1,1.3,7.8,3.6c2.2,2.6,2.7,5,2.7,11.7
		L181.3,30.9z M167,30.2c0,4.2,0.1,6.3,0.5,7.2c0.5,1.6,1.8,2.6,3.4,2.6c1.7,0,3-1.1,3.4-3c0.2-0.9,0.3-3,0.3-6.8l0-14.2
		c0-4.4-0.1-6.3-0.5-7.2c-0.5-1.6-1.8-2.6-3.3-2.6c-1.7,0-3,1.1-3.5,3c-0.2,0.9-0.3,3.2-0.3,6.8L167,30.2z"/>
</g>
<g>
	<path class="st0" d="M209.7,61.8l0-31l-6.4,31l-3,0l-6.8-31l0,31l-6.3,0L187.1,17l9,0l5.6,27.3l5.1-27.3l9.1,0l0.1,44.9L209.7,61.8
		z"/>
</g>
<g>
	<path class="st0" d="M223.3,33.3l9.4,0c7.4,0,11.2,3.9,11.2,11.6c0,4.7-1.3,7.7-4.7,10c3.9,1.9,5.5,5.2,5.5,11.2
		c0,4.5-1.1,7.7-3.3,9.8c-1.8,1.7-3.7,2.2-8.1,2.2l-10,0L223.3,33.3z M232.6,71.9c3.8,0,5.4-1.9,5.4-6.5c0-2.9-0.7-5.1-2.2-6.3
		c-0.9-0.7-2-1-4-1l-1.7,0l0,13.8L232.6,71.9z M231.5,51.8c2.1,0,3-0.3,4-1.1c1.2-1.1,1.8-3,1.8-5.5c0-3.8-1.5-5.6-4.7-5.6l-2.6,0
		l0,12.3L231.5,51.8z"/>
</g>
</svg>
